<svg width="3071" height="1007" viewBox="0 0 3071 1007" fill="none" xmlns="http://www.w3.org/2000/svg">
<path fill-rule="evenodd" clip-rule="evenodd" d="M828.382 561.828C830.483 575.167 831.584 588.805 831.584 602.658C831.584 768.463 674.784 902.875 481.36 902.875C426.926 902.875 375.393 892.239 329.439 873.239L178.793 916.277C139.668 927.45 102.469 895.563 115.502 862.024L165.709 732.888C142.878 692.267 131.059 647.747 131.137 602.658C131.137 445.451 272.102 316.465 451.591 303.513C438.176 330.269 431.28 359.094 431.329 388.217C431.329 506.653 543.325 602.658 681.488 602.658C734.263 602.734 785.701 588.437 828.382 561.828V561.828Z" fill="url(#paint0_linear_2_11)"/>
<path fill-rule="evenodd" clip-rule="evenodd" d="M997.14 518.447L1047.35 647.583C1060.38 681.122 1023.18 713.009 984.057 701.837L833.41 658.798C786.024 678.369 734.088 688.501 681.489 688.434C488.065 688.434 331.265 554.023 331.265 388.217C331.265 222.411 488.065 88 681.489 88C874.912 88 1031.71 222.411 1031.71 388.217C1031.71 434.879 1019.3 479.054 997.14 518.447Z" fill="url(#paint1_linear_2_11)"/>
<path fill-rule="evenodd" clip-rule="evenodd" d="M531.393 431.105C544.662 431.105 557.388 426.587 566.771 418.544C576.154 410.501 581.425 399.592 581.425 388.217C581.425 376.842 576.154 365.934 566.771 357.891C557.388 349.848 544.662 345.329 531.393 345.329C518.124 345.329 505.398 349.848 496.015 357.891C486.632 365.934 481.361 376.842 481.361 388.217C481.361 399.592 486.632 410.501 496.015 418.544C505.398 426.587 518.124 431.105 531.393 431.105V431.105ZM681.489 431.105C694.758 431.105 707.484 426.587 716.867 418.544C726.25 410.501 731.521 399.592 731.521 388.217C731.521 376.842 726.25 365.934 716.867 357.891C707.484 349.848 694.758 345.329 681.489 345.329C668.22 345.329 655.494 349.848 646.111 357.891C636.728 365.934 631.457 376.842 631.457 388.217C631.457 399.592 636.728 410.501 646.111 418.544C655.494 426.587 668.22 431.105 681.489 431.105V431.105ZM831.585 431.105C844.854 431.105 857.58 426.587 866.962 418.544C876.345 410.501 881.617 399.592 881.617 388.217C881.617 376.842 876.345 365.934 866.962 357.891C857.58 349.848 844.854 345.329 831.585 345.329C818.315 345.329 805.59 349.848 796.207 357.891C786.824 365.934 781.553 376.842 781.553 388.217C781.553 399.592 786.824 410.501 796.207 418.544C805.59 426.587 818.315 431.105 831.585 431.105V431.105Z" fill="white"/>
<g filter="url(#filter0_i_2_11)">
<path d="M1741.82 499.824C1749 499.824 1754.15 501.384 1757.27 504.504C1760.7 507.624 1762.42 511.68 1762.42 516.672C1762.42 524.784 1759.92 531.96 1754.93 538.2C1750.25 544.44 1742.76 547.716 1732.46 548.028C1707.82 548.34 1685.66 546.468 1666.01 542.412C1644.17 588.9 1617.8 627.588 1586.92 658.476C1556.34 689.052 1526.08 704.34 1496.12 704.34C1468.67 704.34 1448.08 689.832 1434.35 660.816C1420.62 631.488 1412.82 592.332 1410.95 543.348C1392.23 597.636 1371.01 638.04 1347.3 664.56C1323.9 691.08 1298.94 704.34 1272.42 704.34C1242.47 704.34 1219.85 685.776 1204.56 648.648C1189.27 611.208 1181.63 560.976 1181.63 497.952C1181.63 452.088 1185.68 401.7 1193.8 346.788C1195.98 331.188 1199.88 320.424 1205.5 314.496C1211.42 308.256 1220.63 305.136 1233.11 305.136C1242.47 305.136 1249.64 307.164 1254.64 311.22C1259.94 315.276 1262.59 322.764 1262.59 333.684C1262.59 335.868 1262.28 340.08 1261.66 346.32C1252.3 410.28 1247.62 464.724 1247.62 509.652C1247.62 551.46 1251.2 583.752 1258.38 606.528C1265.56 629.304 1275.23 640.692 1287.4 640.692C1298.32 640.692 1311.42 629.304 1326.71 606.528C1342.31 583.44 1357.75 549.432 1373.04 504.504C1388.33 459.264 1401.28 405.444 1411.88 343.044C1414.38 328.692 1418.9 318.864 1425.46 313.56C1432.32 307.944 1441.52 305.136 1453.07 305.136C1462.74 305.136 1469.76 307.32 1474.13 311.688C1478.81 315.744 1481.15 321.984 1481.15 330.408C1481.15 335.4 1480.84 339.3 1480.21 342.108C1471.48 392.964 1467.11 443.82 1467.11 494.676C1467.11 529.308 1468.2 556.92 1470.38 577.512C1472.88 598.104 1477.4 613.86 1483.96 624.78C1490.82 635.388 1500.65 640.692 1513.44 640.692C1528.42 640.692 1545.11 629.46 1563.52 606.996C1581.92 584.22 1598.77 555.984 1614.06 522.288C1595.03 510.432 1580.68 495.144 1571 476.424C1561.33 457.392 1556.5 435.552 1556.5 410.904C1556.5 386.256 1560.24 365.508 1567.73 348.66C1575.53 331.5 1585.98 318.708 1599.08 310.284C1612.5 301.86 1627.32 297.648 1643.54 297.648C1663.51 297.648 1679.27 304.824 1690.81 319.176C1702.67 333.528 1708.6 353.184 1708.6 378.144C1708.6 413.4 1700.95 452.556 1685.66 495.612C1701.58 498.42 1720.3 499.824 1741.82 499.824ZM1603.76 407.628C1603.76 438.204 1613.59 460.824 1633.25 475.488C1645.42 440.544 1651.5 411.684 1651.5 388.908C1651.5 375.804 1649.78 366.288 1646.35 360.36C1642.92 354.12 1638.24 351 1632.31 351C1623.89 351 1617.02 355.992 1611.72 365.976C1606.42 375.648 1603.76 389.532 1603.76 407.628ZM1884.47 611.676C1888.52 611.676 1891.64 613.548 1893.83 617.292C1896.32 621.036 1897.57 626.184 1897.57 632.736C1897.57 643.968 1894.92 653.64 1889.62 661.752C1880.88 675.168 1869.34 685.62 1854.98 693.108C1840.94 700.596 1824.1 704.34 1804.44 704.34C1774.49 704.34 1751.24 695.448 1734.71 677.664C1718.17 659.568 1709.9 635.232 1709.9 604.656C1709.9 583.128 1714.43 563.16 1723.48 544.752C1732.52 526.032 1745 511.212 1760.92 500.292C1777.14 489.372 1795.39 483.912 1815.67 483.912C1833.77 483.912 1848.28 489.372 1859.2 500.292C1870.12 510.9 1875.58 525.408 1875.58 543.816C1875.58 565.344 1867.78 583.908 1852.18 599.508C1836.89 614.796 1810.68 626.964 1773.55 636.012C1781.04 650.364 1793.68 657.54 1811.46 657.54C1824.25 657.54 1834.7 654.576 1842.82 648.648C1851.24 642.72 1860.91 632.736 1871.83 618.696C1875.58 614.016 1879.79 611.676 1884.47 611.676ZM1807.72 529.776C1796.17 529.776 1786.34 536.484 1778.23 549.9C1770.43 563.316 1766.53 579.54 1766.53 598.572V599.508C1784.94 595.14 1799.45 588.588 1810.06 579.852C1820.66 571.116 1825.97 560.976 1825.97 549.432C1825.97 543.504 1824.25 538.824 1820.82 535.392C1817.7 531.648 1813.33 529.776 1807.72 529.776ZM2222.73 704.34C2185.6 704.34 2153.31 697.632 2125.85 684.216C2098.4 670.488 2077.34 651.144 2062.67 626.184C2048.01 601.224 2040.68 572.208 2040.68 539.136C2040.68 493.272 2049.26 452.556 2066.42 416.988C2083.89 381.42 2107.45 353.964 2137.09 334.62C2166.73 314.964 2199.64 305.136 2235.83 305.136C2269.53 305.136 2295.11 313.872 2312.59 331.344C2330.06 348.504 2338.79 371.28 2338.79 399.672C2338.79 418.704 2335.36 433.992 2328.5 445.536C2321.95 457.08 2312.43 462.852 2299.95 462.852C2291.21 462.852 2284.35 460.824 2279.36 456.768C2274.37 452.712 2271.87 446.784 2271.87 438.984C2271.87 436.176 2272.49 431.028 2273.74 423.54C2275.61 414.18 2276.55 406.692 2276.55 401.076C2276.55 372.684 2261.42 358.488 2231.15 358.488C2210.56 358.488 2190.91 365.196 2172.19 378.612C2153.47 392.028 2138.33 411.84 2126.79 438.048C2115.25 463.944 2109.47 494.832 2109.47 530.712C2109.47 568.152 2119.93 597.168 2140.83 617.76C2161.73 638.04 2192.62 648.18 2233.49 648.18C2253.77 648.18 2274.21 645.684 2294.8 640.692C2315.71 635.388 2338.79 627.432 2364.07 616.824C2368.75 614.952 2372.65 614.016 2375.77 614.016C2380.76 614.016 2384.5 615.888 2387 619.632C2389.49 623.376 2390.74 628.212 2390.74 634.14C2390.74 653.172 2380.45 667.212 2359.85 676.26C2337.7 685.932 2314.61 693.108 2290.59 697.788C2266.88 702.156 2244.26 704.34 2222.73 704.34ZM2613.77 597.636C2617.82 597.636 2620.94 599.508 2623.13 603.252C2625.62 606.996 2626.87 612.144 2626.87 618.696C2626.87 631.176 2623.91 640.848 2617.98 647.712C2603.63 664.248 2588.81 677.82 2573.52 688.428C2558.54 699.036 2541.38 704.34 2522.04 704.34C2506.13 704.34 2494.11 699.816 2486 690.768C2477.89 681.408 2473.83 667.992 2473.83 650.52C2473.83 641.784 2476.02 626.184 2480.39 603.72C2484.44 584.064 2486.47 570.492 2486.47 563.004C2486.47 558.012 2484.75 555.516 2481.32 555.516C2477.27 555.516 2471.49 560.82 2464.01 571.428C2456.52 581.724 2449.03 595.452 2441.54 612.612C2434.05 629.772 2427.97 647.868 2423.29 666.9C2417.36 691.86 2402.7 704.34 2379.3 704.34C2369.94 704.34 2363.7 701.064 2360.58 694.512C2357.77 687.648 2356.37 675.48 2356.37 658.008C2356.37 648.024 2356.52 640.068 2356.83 634.14L2357.3 596.7C2357.3 548.652 2362.14 498.576 2371.81 446.472C2381.79 394.368 2396.3 350.688 2415.33 315.432C2434.68 279.864 2457.77 262.08 2484.6 262.08C2498.95 262.08 2510.49 268.32 2519.23 280.8C2528.28 292.968 2532.8 308.88 2532.8 328.536C2532.8 360.048 2523.6 392.808 2505.19 426.816C2486.78 460.512 2456.83 499.98 2415.33 545.22C2414.4 561.444 2413.93 578.136 2413.93 595.296C2424.23 568.776 2435.61 547.248 2448.09 530.712C2460.89 513.864 2473.37 501.852 2485.53 494.676C2498.01 487.5 2509.4 483.912 2519.7 483.912C2539.98 483.912 2550.12 494.052 2550.12 514.332C2550.12 526.5 2546.69 548.496 2539.82 580.32C2533.89 607.464 2530.93 625.404 2530.93 634.14C2530.93 646.62 2535.45 652.86 2544.5 652.86C2550.74 652.86 2558.07 649.116 2566.5 641.628C2575.23 633.828 2586.78 621.348 2601.13 604.188C2604.87 599.82 2609.09 597.636 2613.77 597.636ZM2474.77 308.412C2469.15 308.412 2462.91 316.524 2456.05 332.748C2449.19 348.66 2442.48 370.344 2435.93 397.8C2429.69 424.944 2424.54 454.584 2420.48 486.72C2439.83 463.944 2455.74 439.14 2468.22 412.308C2481.01 385.476 2487.41 361.14 2487.41 339.3C2487.41 329.316 2486.31 321.672 2484.13 316.368C2481.95 311.064 2478.83 308.412 2474.77 308.412ZM2646.5 704.34C2627.16 704.34 2611.72 697.32 2600.17 683.28C2588.63 669.24 2582.86 650.832 2582.86 628.056C2582.86 603.096 2588.63 579.54 2600.17 557.388C2611.72 534.924 2627 516.984 2646.04 503.568C2665.38 489.84 2685.82 482.976 2707.34 482.976C2714.21 482.976 2718.73 484.38 2720.92 487.188C2723.41 489.684 2725.44 494.364 2727 501.228C2733.55 499.98 2740.42 499.356 2747.59 499.356C2762.88 499.356 2770.52 504.816 2770.52 515.736C2770.52 522.288 2768.18 537.888 2763.5 562.536C2756.33 598.416 2752.74 623.376 2752.74 637.416C2752.74 642.096 2753.83 645.84 2756.02 648.648C2758.51 651.456 2761.63 652.86 2765.38 652.86C2771.3 652.86 2778.48 649.116 2786.9 641.628C2795.33 633.828 2806.72 621.348 2821.07 604.188C2824.81 599.82 2829.02 597.636 2833.7 597.636C2837.76 597.636 2840.88 599.508 2843.06 603.252C2845.56 606.996 2846.81 612.144 2846.81 618.696C2846.81 631.176 2843.84 640.848 2837.92 647.712C2825.12 663.624 2811.55 677.04 2797.2 687.96C2782.85 698.88 2768.96 704.34 2755.55 704.34C2745.25 704.34 2735.74 700.908 2727 694.044C2718.58 686.868 2712.18 677.196 2707.81 665.028C2691.59 691.236 2671.15 704.34 2646.5 704.34ZM2663.35 657.072C2670.22 657.072 2676.77 653.016 2683.01 644.904C2689.25 636.792 2693.77 626.028 2696.58 612.612L2713.9 526.5C2700.79 526.812 2688.62 531.804 2677.39 541.476C2666.47 550.836 2657.74 563.316 2651.18 578.916C2644.63 594.516 2641.36 611.052 2641.36 628.524C2641.36 638.196 2643.23 645.372 2646.97 650.052C2651.03 654.732 2656.49 657.072 2663.35 657.072ZM2885.99 528.372C2885.37 543.972 2885.06 556.14 2885.06 564.876C2885.06 587.34 2886.15 604.968 2888.33 617.76C2890.83 630.24 2894.73 639.288 2900.03 644.904C2905.65 650.208 2913.29 652.86 2922.96 652.86C2927.96 652.86 2933.88 651.3 2940.75 648.18C2947.61 645.06 2953.85 641.004 2959.47 636.012C2962.9 632.892 2966.33 631.332 2969.76 631.332C2973.51 631.332 2976.47 633.516 2978.66 637.884C2981.15 641.94 2982.4 646.932 2982.4 652.86C2982.4 658.788 2981.15 664.56 2978.66 670.176C2976.47 675.792 2973.04 680.472 2968.36 684.216C2952.14 697.632 2933.73 704.34 2913.14 704.34C2883.5 704.34 2861.81 692.016 2848.08 667.368C2834.36 642.408 2827.49 609.96 2827.49 570.024C2827.49 556.296 2827.96 542.412 2828.9 528.372H2810.64C2801.28 528.372 2794.89 526.656 2791.46 523.224C2788.34 519.792 2786.78 514.332 2786.78 506.844C2786.78 489.372 2793.8 480.636 2807.84 480.636H2834.51C2839.82 446.316 2847.93 414.96 2858.85 386.568C2869.77 358.176 2882.87 335.556 2898.16 318.708C2913.76 301.86 2930.45 293.436 2948.24 293.436C2961.34 293.436 2971.64 299.208 2979.12 310.752C2986.61 322.296 2990.36 336.804 2990.36 354.276C2990.36 402.636 2970.08 444.756 2929.52 480.636H2981.93C2986.92 480.636 2990.51 481.728 2992.7 483.912C2994.88 486.096 2995.97 490.152 2995.97 496.08C2995.97 517.608 2978.34 528.372 2943.09 528.372H2885.99ZM2935.6 338.364C2930.92 338.364 2925.62 344.292 2919.69 356.148C2914.07 367.692 2908.61 383.916 2903.31 404.82C2898.32 425.412 2894.1 448.344 2890.67 473.616C2909.08 457.704 2922.81 439.92 2931.86 420.264C2941.22 400.296 2945.9 382.2 2945.9 365.976C2945.9 347.568 2942.46 338.364 2935.6 338.364Z" fill="#4DB7EC"/>
</g>
<defs>
<filter id="filter0_i_2_11" x="1181.63" y="262.08" width="1828.34" height="446.26" filterUnits="userSpaceOnUse" color-interpolation-filters="sRGB">
<feFlood flood-opacity="0" result="BackgroundImageFix"/>
<feBlend mode="normal" in="SourceGraphic" in2="BackgroundImageFix" result="shape"/>
<feColorMatrix in="SourceAlpha" type="matrix" values="0 0 0 0 0 0 0 0 0 0 0 0 0 0 0 0 0 0 127 0" result="hardAlpha"/>
<feOffset dx="14" dy="4"/>
<feGaussianBlur stdDeviation="11"/>
<feComposite in2="hardAlpha" operator="arithmetic" k2="-1" k3="1"/>
<feColorMatrix type="matrix" values="0 0 0 0 0.439216 0 0 0 0 0.862745 0 0 0 0 0.94902 0 0 0 1 0"/>
<feBlend mode="normal" in2="shape" result="effect1_innerShadow_2_11"/>
</filter>
<linearGradient id="paint0_linear_2_11" x1="472.216" y1="303.513" x2="472.216" y2="918.552" gradientUnits="userSpaceOnUse">
<stop stop-color="#2397B3"/>
<stop offset="1" stop-color="#13577E"/>
</linearGradient>
<linearGradient id="paint1_linear_2_11" x1="690.633" y1="88" x2="690.633" y2="704.111" gradientUnits="userSpaceOnUse">
<stop stop-color="#73DFF2"/>
<stop offset="1" stop-color="#47B1EB"/>
</linearGradient>
</defs>
</svg>
